<svg xmlns="http://www.w3.org/2000/svg" viewBox="0 0 89 51">
  <g id="Layer_2" data-name="Layer 2">
    <g id="Layer_1-2" data-name="Layer 1">
      <g>
        <path d="M80.65,7.68H38.3A4.38,4.38,0,0,1,35.94,7L32,1.67A4.2,4.2,0,0,0,29.62,1H4.35C2.5,1,1,2,1,3.23V5H25.62A4.2,4.2,0,0,1,28,5.67l4,5.37a4.38,4.38,0,0,0,2.36.64H78.65C85,11.68,84,13,84,17.91V50h.65C86.5,50,88,49,88,47.77V13.91C88,9,87,7.68,80.65,7.68Z" fill="none" stroke="#333" stroke-miterlimit="10" stroke-width="2"/>
        <g id="NyGcaE.tif">
          <g>
            <path d="M26.6,27.43c3.07.06,5.59,1.19,7,4.05a6.87,6.87,0,0,1-.75,7.64c-2.17,2.75-5.17,3.33-8.42,2.58A6.78,6.78,0,0,1,19,36.16C18,31.43,21.5,27.42,26.6,27.43Zm-4.36,7.26a4.29,4.29,0,0,0,4.31,4.45,4.44,4.44,0,0,0,0-8.88A4.28,4.28,0,0,0,22.24,34.69Z" fill="#333"/>
            <path d="M14.1,37.54l2,1.84c-1.58,2.26-5,3.2-8.19,2.29A7.24,7.24,0,0,1,7.27,28a7.93,7.93,0,0,1,8.86,2l-2.07,1.92a4.47,4.47,0,0,0-4.38-1.54,5.5,5.5,0,0,0-2.53,1.4,4.5,4.5,0,0,0,.12,6.1C9,39.63,11.46,39.52,14.1,37.54Z" fill="#333"/>
            <path d="M74,30l-2,1.93a4.37,4.37,0,0,0-4.29-1.56A5.55,5.55,0,0,0,65,31.79a4.52,4.52,0,0,0,.15,6.11c1.75,1.74,4.29,1.63,6.79-.38l2,1.87c-2.54,3.25-8.17,3.49-11.29.58a7.38,7.38,0,0,1,.14-10.62C66,26.55,71.54,26.84,74,30Z" fill="#333"/>
            <path d="M35.79,27.68c1.12,0,2.14-.05,3.15,0,.27,0,.61.44.75.75,1.15,2.62,2.27,5.26,3.4,7.9l.52,1.17c.55-1.25,1-2.31,1.49-3.38.83-1.9,1.67-3.8,2.46-5.72a1,1,0,0,1,1.18-.77c.76,0,1.52,0,2.41,0a8.47,8.47,0,0,1-.28.88c-1.8,4.14-3.61,8.28-5.39,12.43a1.1,1.1,0,0,1-1.17.78c-2.44,0-2.45,0-3.44-2.27q-2.32-5.34-4.64-10.7C36.09,28.48,36,28.14,35.79,27.68Z" fill="#333"/>
            <path d="M57.15,41.68H54V27.75h3.19Z" fill="#333"/>
          </g>
        </g>
      </g>
    </g>
  </g>
</svg>
